<svg version="1.1"
	 xmlns="http://www.w3.org/2000/svg" xmlns:xlink="http://www.w3.org/1999/xlink" xmlns:a="http://ns.adobe.com/AdobeSVGViewerExtensions/3.0/"
	 x="0px" y="0px" width="728.7px" height="534px" viewBox="0 0 728.7 534" style="enable-background:new 0 0 728.7 534;"
	 xml:space="preserve">
<defs>
  <style type="text/css">
    .st0{
    fill:none;
    stroke: red;
    stroke-width: 15px;
    <!-- stroke-dashoffset: -180; -->
    stroke-dasharray: 2000;
    }
</defs>
</style>
<path class="st0" d="M0.5,217.6c52.8,107.8,147.9,197.8,167.4,316.3c-0.4-80.3,9.5-160.2,19.3-239.8c7.4-60.1,14.9-120.2,23.4-180.2
	c5.7-39.6,12.5-80.8,35.7-113.4"/>
<path class="st0" d="M236.6,351.8c-7.8,32.2-8.8,66-2.9,98.6c2.1,11.7,10.2,26.4,21.6,22.8c4.9-1.6,8-6.3,10.6-10.8
	c24.9-43.6,33.5-94.7,35.7-144.9c3.3-73.8-6.4-148.2-28.6-218.7c0.1,116.6-8.8,233.3-26.5,348.6c9.2-48.2,18.7-97.1,41.1-140.7
	c9.5-18.5,21.6-36.3,38.6-48.3c17-12,39.5-17.6,59.1-10.6c-2.3,38.1-33.4,72.6-71.1,78.9c12.5,27.7,33.1,51.8,58.6,68.4
	c3.2,2.1,6.6,4.1,10.3,4.3c8.3,0.4,14.1-7.7,17.9-15.1c14-27.5,21.4-58.3,21.5-89.2c-12.5,23.1-18,49.9-15.4,76
	c25.5-10.8,42-39.8,38.3-67.2c-0.3-2.3-0.8-4.7-2.4-6.4c-5-5.4-13.6,0.9-17.5,7.2c-9,14.6-14.3,35.3-2.5,47.9
	c8.7,9.3,24.2,9.8,35.4,3.7c11.2-6.1,18.6-17.6,23.2-29.5c12-31.1,7.4-65.8,2.7-98.8c13.1,0.9,26.4-5.4,33.9-16.2
	c0.5,32.7,2.4,65.4,5.8,98c0.9,8.7,2.8,18.9,10.7,22.9c4.8,2.4,10.4,1.8,15.7,1.1c63.8-9.2,125.2-34.4,177.2-72.5
	C693.9,336.3,624.7,391.2,592.6,467"/>
<path class="st0" d="M225.1,258.7c-7.8,8.1-15.9,16.8-18.6,27.8c-2.7,11,2.5,24.7,13.5,27.3c3.3,0.8,7.3,0.1,8.9-2.8
	c0.7-1.3,0.9-2.9,1-4.4c0.8-10,1.7-20.2-0.5-29.9c-2.2-9.8-7.8-19.3-16.8-23.7"/>
</svg>
