<svg xmlns="http://www.w3.org/2000/svg" viewBox="0 0 858.71 292"><title>Asset 5</title><g id="Layer_2" data-name="Layer 2"><g id="Layer_1-2" data-name="Layer 1"><g id="showcase"><path id="heart" d="M829,94.5A29.56,29.56,0,0,0,804.84,107,29.56,29.56,0,0,0,780.71,94.5c-16.35,0-31.36,13.35-29.6,29.6,1,9.2,4,14.68,11.17,23.16,10.16,12,42.56,46.24,42.56,46.24s32.4-34.25,42.56-46.24c7.19-8.49,10.18-14,11.17-23.16C860.33,107.85,845.32,94.5,829,94.5Z" style="fill:#ed1c24"/><g id="equal"><rect id="eq-up" x="595.84" y="123.5" width="70" height="16" style="fill:#666"/><rect id="eq-down" x="595.84" y="152.5" width="70" height="16" style="fill:#666"/></g><g id="code"><polygon id="code-morethan" points="443.41 192.34 489.76 146 443.41 99.66 453.61 89.46 510.15 146 453.61 202.54 443.41 192.34" style="fill:#333"/><polygon id="code-slash" points="427.73 68.67 375.8 223.33 391.95 223.33 443.89 68.67 427.73 68.67" style="fill:#333"/><polygon id="code-lessthan" points="376.27 192.34 329.93 146 376.27 99.66 366.07 89.46 309.53 146 366.07 202.54 376.27 192.34" style="fill:#333"/></g><g id="add"><rect id="add-hor" x="136.84" y="138" width="70" height="16" style="fill:#666"/><rect id="add-ver" x="136.84" y="138" width="70" height="16" transform="translate(25.84 317.84) rotate(-90)" style="fill:#666"/></g><g id="pencil"><rect id="wood-dark-paint" y="31.72" width="29.68" height="222.86" style="fill:#f7931e"/><rect id="wood-light-paint" x="10.16" y="31.72" width="9.37" height="222.86" style="fill:#fbb03b"/><rect id="silver-band" y="24.4" width="29.68" height="7.32" style="fill:#ccc"/><path id="eraser" d="M8.67,0H21a8.67,8.67,0,0,1,8.67,8.67V24.4a0,0,0,0,1,0,0H0a0,0,0,0,1,0,0V8.67A8.67,8.67,0,0,1,8.67,0Z" style="fill:#d37da0"/><path id="wooden-tip" d="M29.68,254.58,19.61,280a17.16,17.16,0,0,0-9.53,0L0,254.58Z" style="fill:#c69c6d"/><path id="lead-tip" d="M19.61,280l-4.77,12-4.77-12a17.16,17.16,0,0,1,9.53,0Z"/></g></g></g></g></svg>